PathFileType	4	(X/Y/Z)	OpenSim_Sub05_EMGBaseline_Accel.trc
DataRate	CameraRate	NumFrames	NumMarkers	Units	OrigDataRate	OrigDataStartFrame	OrigNumFrames
100	100	41	8	m	100	10421	11909
Frame#	Time	torso_imu_offset_imu	pelvis_imu_offset_imu	tibia_r_imu_offset_imu	femur_r_imu_offset_imu	tibia_l_imu_offset_imu	femur_l_imu_offset_imu	toes_r_imu_offset_imu	toes_l_imu_offset_imu
				X1	Y1	Z1	X2	Y2	Z2	X3	Y3	Z3	X4	Y4	Z4	X5	Y5	Z5	X6	Y6	Z6	X7	Y7	Z7	X8		Y8	Z8	

10421	104.20000000	9.53399700	1.33417600	5.90162100	10.21696800	-0.08867200	2.83482600	0.79481900	3.33932600	1.77998400	9.74694000	-3.19331800	4.40162200	10.49834400	-2.63546900	-3.04612000	9.39406400	1.63030500	-1.20807700	-1.39882700	-1.91276200	6.53467300	4.73850500	2.83470300	10.95870600
10422	104.21000000	9.15785300	1.22358800	5.81146700	10.04413200	-0.13053900	2.76648700	0.40993500	2.92513200	2.59222400	9.18723900	-2.70030000	4.54537700	9.74990700	-2.24938600	-2.01181900	9.31014400	2.39019600	-1.13446900	-1.01121300	-2.28552700	6.37020900	4.45967600	3.05512900	10.83345700
10423	104.22000000	8.76348400	1.39279500	5.64317400	9.58426800	-0.49065800	2.71916500	-0.26639000	3.43304600	1.80900400	8.52970500	-2.41595300	4.28367900	9.39052300	-0.81031000	-0.87963500	9.16608400	2.66971000	-1.07668900	-0.35809800	-1.86366800	6.61031000	4.62802300	2.82838200	10.77513100
10424	104.23000000	8.52230600	1.44896200	5.58817200	9.23074400	-1.03321500	2.56314600	-0.44884600	4.27554300	1.36321200	7.85388100	-2.12730900	3.84858700	9.56159000	0.68321400	-0.14491400	9.09132800	2.15466300	-0.95288000	0.66254400	-1.31600900	6.98991400	4.78353400	2.40774200	10.91005400
10425	104.24000000	8.47696200	1.46176200	5.63145300	8.86367600	-1.36811700	2.50301700	-0.06921200	5.00344500	1.51795800	7.37281200	-1.91333200	3.49386600	9.86979300	1.18632900	0.15747900	9.23469000	1.66738300	-1.02164000	1.40338200	-0.64393600	7.28020400	4.57712700	2.04559900	10.89300300
10426	104.25000000	8.45040700	1.49897600	5.74121700	8.84011600	-1.82111100	2.37896900	0.55815700	5.63491000	1.82287500	7.05863500	-1.69763400	3.44014900	10.01615300	0.83424400	0.09192800	9.35337900	1.50905700	-0.91299800	1.96830000	-0.18414500	7.50909200	4.62739000	1.77679200	11.28597700
10427	104.26000000	8.24469600	1.53752100	5.84720100	8.75097400	-1.83342900	2.32259100	1.03926000	6.10267300	1.95490100	7.05557800	-1.37244000	3.65316500	9.96105700	0.32106000	0.01750400	9.41187900	1.42662000	-0.78838400	2.75770800	0.34240600	7.81603800	4.90782300	1.77335500	11.05596300
10428	104.27000000	8.11981900	1.55331100	5.90338400	8.75042800	-1.80384600	2.30385000	1.28977100	6.34854400	1.62716200	7.14698300	-1.07639400	3.88309000	9.64515600	-0.54227600	-0.15488800	9.50316500	1.40427200	-0.60698400	3.54256800	0.48077200	7.96251600	5.17504700	1.93044700	10.91127100
10429	104.28000000	8.03476900	1.60566900	5.96293800	8.75340800	-1.66476700	2.25902200	1.59118300	5.85849100	1.63364600	7.28757600	-0.70648200	4.06323300	9.38579700	-1.67803000	-0.46158100	9.56992200	1.49672600	-0.59854100	4.17441900	0.08512100	7.84561900	5.03627700	1.89657600	10.88868300
10430	104.29000000	7.98703800	1.64445400	6.09010500	8.67947100	-1.36302400	2.23171700	1.80927300	4.67523400	1.91415300	7.27014600	-0.23140300	4.16674300	9.39946400	-2.28299100	-0.58312800	9.35411600	1.54854900	-0.58996500	4.60650900	-0.34801300	7.70895000	4.95218900	1.95837400	11.05776000
10431	104.30000000	8.02980100	1.66995500	6.13510800	8.73265800	-1.35595600	2.26755000	1.86520500	3.81958600	2.00375300	7.02664000	0.10777000	4.25304500	9.57172700	-2.04146700	-0.53319900	9.30336100	1.46336600	-0.66733500	5.01129200	-0.55466100	7.66289500	4.88660200	2.07246600	11.03817800
10432	104.31000000	8.10239400	1.74552800	6.16458200	8.65969900	-1.23499700	2.24797500	1.81260800	3.17856700	2.32052400	6.74048900	0.20728800	4.23491100	9.60804500	-1.51794300	-0.39488300	9.33994400	1.30736300	-0.67527900	5.79504600	-0.72970000	8.05237700	5.11586000	1.99504200	10.95563200
10433	104.32000000	8.16386900	1.80217500	6.18765500	8.75396500	-1.27857900	2.20043500	1.98697600	2.68959900	2.92769900	6.34662800	0.20339500	4.15158100	9.64642500	-1.52676200	-0.22732000	9.28770700	1.19230800	-0.71725400	7.23338000	-1.63218000	8.61564200	5.12479000	1.87006300	10.78383300
10434	104.33000000	8.22186400	1.82314100	6.31433700	8.84244100	-1.41754200	2.12974400	2.74122600	2.84092600	3.04417500	5.93495700	0.06012000	4.11052500	9.90761400	-1.63531300	-0.01203200	9.19414200	1.12937300	-0.72813400	9.16115599	-2.71454600	9.08135600	4.89020500	1.98296400	11.01687800
10435	104.34000000	8.24947900	1.89518700	6.42496400	8.89191100	-1.54064600	2.09576500	3.99789700	3.74738500	2.46172700	5.57612700	0.10129200	4.09416200	9.94958800	-1.46785800	0.02086800	9.30885100	1.21145200	-0.79871400	11.02348900	-3.23481300	9.49728000	4.59323100	2.00762200	11.17851400
10436	104.35000000	8.15836800	1.88333700	6.38523700	8.95303200	-1.64429500	2.11730700	5.27428600	4.93602400	1.99225800	5.41867000	0.08878400	4.25553100	9.88061400	-1.31147100	-0.09028500	9.48548400	0.94423300	-0.79269900	12.37254600	-2.90970100	9.54237000	5.05928500	1.82692100	10.97652600
10437	104.36000000	8.05489800	1.87873600	6.41854800	8.95160800	-1.67511100	2.02553700	6.66201500	5.85637300	1.35826700	5.27786500	0.07014900	4.35506500	9.82661000	-1.12561000	-0.12937100	9.36104800	0.63843300	-0.82784900	13.07754500	-2.24662100	9.31614900	5.35079600	1.51987100	10.77657900
10438	104.37000000	7.95006600	1.76413300	6.44414400	8.84037300	-1.63989300	1.98334700	8.25068600	6.57173400	0.59281800	5.07400900	-0.00496800	4.35203400	10.09650400	-1.11488300	-0.41081500	9.29411500	0.40022100	-0.88390300	14.67696299	-1.88252600	8.51448000	4.94634300	1.58567000	10.88963200
10439	104.38000000	7.83684900	1.70310800	6.34945800	8.72417900	-1.67132300	1.87782800	10.35930099	6.58728800	0.22241600	4.83170600	-0.37950400	4.28059800	9.88182500	-0.82649200	-0.84121400	9.45876000	0.17150900	-0.83585900	16.90069399	-2.10593100	7.18528400	4.55508300	2.10988500	11.11432300
10440	104.39000000	7.76014000	1.68562000	6.39047500	8.49349100	-1.74814600	1.84743500	12.79125299	5.78784600	1.02128400	4.85956700	-1.17577900	4.29455100	9.65685800	-0.35234100	-1.03652200	9.48634700	0.16337900	-0.88898000	20.02414799	-2.53397200	5.97150200	4.78384000	2.43464400	10.91714200
10441	104.40000000	7.71467400	1.72574300	6.32629900	8.27169600	-1.94307900	1.86818400	14.49436800	4.61132900	0.96907400	5.40261900	-2.12015400	4.68926700	9.67697900	0.05397100	-1.25850200	9.77647400	0.40151300	-0.96796900	23.61661599	-3.66405200	4.45026200	4.89622400	2.13248400	10.94887300
10442	104.41000000	7.67759500	1.73362700	6.33175000	7.99740600	-2.28025700	1.72860400	13.94248200	3.52563200	-0.96760400	6.52940800	-3.15777500	5.50449400	9.99750300	-0.03205900	-1.51063600	9.74385700	0.72166300	-1.06242600	25.58256900	-3.87629300	2.47662601	5.08552100	2.05453300	10.82964200
10443	104.42000000	7.68396700	1.84074600	6.18919500	7.92231800	-2.73482800	1.67142300	12.50298200	3.95526400	-0.92082900	7.88968600	-4.04317700	6.20643100	10.29268100	0.39108300	-1.61977400	9.39950600	0.95203900	-1.00935500	25.57845100	-2.54972701	-0.03397999	4.62267200	2.29835600	11.05779800
10444	104.43000000	7.81710600	1.87365800	6.21918900	8.03875900	-3.02651100	1.60957500	12.35880800	5.53340300	0.12276600	9.51932000	-5.03891500	6.92789600	10.19577000	0.87939500	-1.69505200	9.34704000	1.34631600	-0.96271700	24.70593900	-0.18622001	-2.94542799	4.97268100	2.35289900	10.97012300
10445	104.44000000	8.22840500	1.92247100	6.30981700	8.53062600	-3.05488800	1.61937900	13.01583000	7.10606100	-0.01144500	10.87365900	-6.01707100	7.48672300	10.17763600	1.48228900	-1.87966400	9.38597600	1.60200700	-1.11542100	23.30609000	2.05698200	-5.64571799	4.94454500	2.62967500	10.94032000
10446	104.45000000	8.66944800	1.99790900	6.43688000	9.33055500	-2.85605700	1.75231700	11.93670100	7.31917100	-0.93827000	12.11536800	-6.89427500	8.02492600	10.67434100	2.02954400	-1.58804400	9.30759100	1.66722800	-1.42792900	22.20580500	3.21272300	-7.72445900	4.82302800	2.79956800	11.06822600
10447	104.46000000	9.25156200	2.09972400	6.54413900	9.92353700	-2.49469900	2.00989600	10.35365800	6.61579000	-1.48962500	13.43763600	-8.59657600	6.91341001	10.73790600	2.65574600	-1.53417600	9.45934200	1.80528400	-1.75924800	21.33658100	2.92628701	-9.47057400	4.32660500	2.86732300	11.39576100
10448	104.47000000	9.50175300	2.18542500	6.78003000	10.29375400	-2.07654800	2.04627000	9.66227400	5.57125000	-2.62331600	14.24346700	-9.87292900	4.05619901	10.62613700	2.71389300	-1.33395000	9.50281100	2.08222100	-2.07839100	19.96603700	1.57307399	-10.38404900	4.38226000	2.68819700	11.43824400
10449	104.48000000	9.74487600	2.10268900	6.87582200	10.59198000	-1.68294600	2.03116100	9.95700500	3.42999001	-2.83671900	13.32392601	-9.83059800	3.19770500	10.69924800	2.63062000	-1.41510700	9.68560700	2.44760500	-2.36534900	18.45094800	0.35988004	-9.99390699	4.62740300	2.63024100	11.40781700
10450	104.49000000	9.78008600	2.07930200	6.86223000	10.69853600	-1.50422700	1.97846000	10.67125400	0.80960701	-1.92196600	10.31617001	-8.07934701	4.22280200	10.85260200	1.70220700	-1.49665300	9.67493700	2.61376400	-2.27079300	14.26633502	-16.14635001	-16.02600600	4.85181600	2.67026400	11.38672600
10451	104.50000000	9.79045900	2.08549000	6.94533600	10.62052200	-1.62939000	1.97685300	10.70346600	-0.68919400	-1.45461300	6.97628801	-5.85830101	5.22629800	11.10905000	0.86457000	-1.43340400	9.64226600	2.51301400	-1.99666200	5.55226800	10.81784493	-5.27537805	4.76422100	2.70036500	11.55315500
10452	104.51000000	9.75937300	2.07809100	6.97677400	10.55812300	-2.10978300	2.23944400	10.35713300	-2.09682800	-0.75903600	5.69523100	-3.57555901	5.92315800	11.11480200	0.09124000	-0.87491400	9.82099800	2.31559000	-1.77695800	10.53653499	13.45410605	13.65340396	4.32950100	2.37401400	11.78544200
10453	104.52000000	9.77454400	2.01999600	7.01444400	10.58452400	-2.28906600	2.61450800	11.45450700	-4.38100299	1.33598199	6.36735800	-1.79572300	6.96480900	11.25813300	-0.26583000	-0.62161300	10.17904100	1.98274100	-1.45256300	8.37888701	-9.31888999	20.48647500	4.48493800	2.37878300	11.80275800
10454	104.53000000	10.13592300	1.96949100	7.33058300	10.59075700	-1.72017900	3.30099900	13.69620599	-6.80881499	5.84871099	8.48605899	-0.44353600	7.27983100	11.71309200	-0.18059500	-0.73215800	10.85008800	1.22584400	-1.05720500	9.68823399	6.79005495	17.43495401	4.53376000	3.17148600	12.06414600
10455	104.54000000	11.16678800	1.88178700	7.80372200	10.75468500	-1.13789300	3.88628400	17.62220999	-10.18959499	9.97125399	12.06184799	0.79576200	6.18044801	12.82856500	0.33295700	-0.82209200	11.63993200	0.50149300	-0.63104400	11.81102799	10.39148602	14.49892601	4.04126500	3.57490600	12.44235000
10456	104.55000000	12.30833300	1.85189900	7.82141200	11.40809400	-0.52324900	4.15399800	20.55324100	-11.91259401	11.65411600	14.36705100	1.06944700	3.55403801	14.10401500	0.86229700	-0.65190600	12.69736000	0.12505700	-0.29522900	15.69160400	0.73527502	12.41303401	3.29779100	3.99973200	13.00554400
10457	104.56000000	12.57642700	1.74190300	7.38064400	12.59425800	-0.11876600	3.68110300	18.06638201	-5.80914302	8.12190701	14.13142600	-1.81699399	2.17488900	15.40029800	1.55711200	0.42378100	13.23013500	0.24367600	-0.18646500	12.83289601	-2.65181599	8.99770301	3.47070000	4.13054600	13.15487900
10458	104.57000000	12.05062400	1.46040000	6.88165800	13.52559800	-0.15628000	3.82582700	14.21923801	2.55137198	4.85956200	12.85280700	-8.26748398	1.50012300	16.22545200	2.27533100	1.77865500	13.00056800	0.84442000	0.00302500	8.69538300	-5.73500000	6.00875100	3.45037500	2.87385300	13.31862800
10459	104.58000000	11.04943100	1.19552200	6.54907900	13.40884300	-0.76008200	4.15186500	9.68690001	8.11182599	3.80650201	13.19023800	-13.52314799	0.69310100	16.53165800	2.59257000	3.02131500	12.71677000	1.95365600	0.19116000	8.93231300	-2.58096001	7.85414899	3.60241200	2.43526300	13.54233600
10460	104.59000000	10.33457200	0.83961800	6.24374900	12.32291500	-1.56119100	4.09988600	5.62313701	9.16711800	-0.80170398	12.92882600	-13.42226501	0.06647200	16.72987300	3.98732399	4.09308100	11.86866700	2.90709000	0.39200500	7.37337601	-0.34487400	8.61396500	4.27025700	3.24145400	14.13419700
10461	104.60000000	10.09121400	0.51308500	6.08501100	10.76302700	-2.23667600	3.85811900	3.13135600	8.32147200	-8.38080599	10.35481801	-6.32049902	-0.20361100	16.47107800	5.97294300	4.87439800	10.58940800	3.28813200	0.99805900	6.11581200	-2.47448799	7.87391100	5.13624600	1.31041400	13.81427200
